<svg width="10" height="17" viewBox="0 0 10 17" fill="none" xmlns="http://www.w3.org/2000/svg">
<path d="M9.36525 0.00347163L7.03106 0C4.40867 0 2.71396 1.61171 2.71396 4.10624V5.9995H0.36703C0.164227 5.9995 0 6.1519 0 6.3399V9.08301C0 9.27103 0.164415 9.42324 0.36703 9.42324H2.71396V16.345C2.71396 16.533 2.87819 16.6852 3.08099 16.6852H6.14307C6.34587 16.6852 6.5101 16.5328 6.5101 16.345V9.42324H9.25421C9.45701 9.42324 9.62124 9.27103 9.62124 9.08301L9.62236 6.3399C9.62236 6.24963 9.5836 6.16319 9.51487 6.09931C9.44615 6.03543 9.35252 5.9995 9.25514 5.9995H6.5101V4.39456C6.5101 3.62317 6.70841 3.23157 7.79246 3.23157L9.36488 3.23105C9.56749 3.23105 9.73172 3.07864 9.73172 2.89083V0.343692C9.73172 0.15605 9.56768 0.0038188 9.36525 0.00347163Z" fill="#292929"/>
</svg>
