<svg width="22" height="17" viewBox="0 0 22 17" fill="none" xmlns="http://www.w3.org/2000/svg">
<path d="M19.5632 11.1586C18.3142 11.1586 17.0879 10.9958 15.9257 10.6757C15.3563 10.5139 14.6563 10.6624 14.3087 10.9598L12.0149 12.4028C9.35482 11.2195 7.71623 9.85442 6.31565 7.65429L7.99625 5.79262C8.43289 5.42924 8.5895 4.89844 8.40186 4.40039C8.01618 3.42687 7.82025 2.40541 7.82025 1.36416C7.8203 0.611956 7.08596 0 6.18336 0H2.43699C1.5344 0 0.800049 0.611956 0.800049 1.36412C0.800049 9.98586 9.21707 17 19.5632 17C20.4658 17 21.2001 16.388 21.2001 15.6359V12.5226C21.2 11.7705 20.4657 11.1586 19.5632 11.1586Z" fill="black"/>
</svg>
