<svg width="18" height="15" viewBox="0 0 18 15" fill="none" xmlns="http://www.w3.org/2000/svg">
<path d="M18 2.46328C17.2919 2.74562 16.5836 2.92195 15.8758 2.99277C16.6752 2.54813 17.216 1.91996 17.4978 1.10831C16.7664 1.51054 15.9861 1.78572 15.1563 1.93401C14.4252 1.21411 13.5269 0.854004 12.4607 0.854004C11.4405 0.854004 10.5707 1.18744 9.85075 1.85447C9.13135 2.52146 8.7716 3.32777 8.7716 4.2735C8.7716 4.52755 8.802 4.78879 8.86296 5.05697C7.3553 4.9864 5.94101 4.63528 4.61985 4.00358C3.29876 3.37182 2.17757 2.53014 1.25628 1.47854C0.921245 2.00777 0.753675 2.58309 0.753675 3.20418C0.753675 3.78999 0.902125 4.33353 1.19923 4.83466C1.49615 5.33571 1.89599 5.74149 2.39855 6.05209C1.80454 6.03088 1.24871 5.88616 0.731035 5.61794V5.66028C0.731035 6.48614 1.01085 7.2112 1.57043 7.83602C2.13008 8.46078 2.83635 8.85403 3.68907 9.01645C3.36924 9.09399 3.04557 9.13282 2.71821 9.13282C2.50499 9.13282 2.27273 9.11519 2.02151 9.08016C2.25753 9.76465 2.69158 10.3273 3.32348 10.7687C3.9555 11.2098 4.67125 11.4371 5.47077 11.4516C4.13072 12.4255 2.60408 12.9124 0.890885 12.9124C0.563415 12.9124 0.266546 12.8986 0 12.8702C1.71325 13.8935 3.60155 14.4052 5.66503 14.4052C6.97467 14.4052 8.20438 14.213 9.35375 13.8282C10.5038 13.4437 11.4859 12.9284 12.3007 12.2824C13.1153 11.6367 13.8178 10.8939 14.4079 10.054C14.9979 9.21403 15.4375 8.33715 15.7271 7.42316C16.0163 6.50898 16.161 5.5934 16.161 4.67569C16.161 4.47805 16.1572 4.3299 16.1495 4.23104C16.8731 3.74427 17.4898 3.15482 18 2.46328Z" fill="#292929"/>
</svg>
