<svg width="19" height="14" viewBox="0 0 19 14" fill="none" xmlns="http://www.w3.org/2000/svg">
<path d="M18.2594 1.91797C17.5736 1.16226 16.3073 0.854004 13.8891 0.854004H5.11076C2.63714 0.854004 1.34943 1.18215 0.666165 1.98671C0 2.77116 0 3.92699 0 5.52668V8.5757C0 11.6748 0.7904 13.2483 5.11076 13.2483H13.8891C15.9862 13.2483 17.1483 12.9764 17.9001 12.3094C18.6711 11.6255 19 10.5089 19 8.5757V5.52668C19 3.83967 18.9485 2.67703 18.2594 1.91797ZM12.1981 7.47214L8.21186 9.40321C8.12275 9.44639 8.02529 9.46781 7.92796 9.46781C7.81776 9.46781 7.70781 9.4403 7.61042 9.38565C7.42704 9.28266 7.31506 9.09842 7.31506 8.89969V5.04992C7.31506 4.85153 7.42673 4.66747 7.60975 4.56441C7.79282 4.46136 8.02051 4.45432 8.21045 4.54578L12.1967 6.46441C12.3995 6.56202 12.5268 6.75608 12.5271 6.96782C12.5274 7.17973 12.4006 7.37408 12.1981 7.47214Z" fill="#292929"/>
</svg>
